<svg width="900" height="240" viewBox="0 0 900 240" xmlns="http://www.w3.org/2000/svg" role="img" aria-label="I2C repeated start timing">
  <style>
    .sig { fill: none; stroke: #111; stroke-width: 2; }
    .label { font: 14px monospace; fill: #111; }
    .muted { font: 12px monospace; fill: #444; }
  </style>
  <rect x="0" y="0" width="900" height="240" fill="#fff"/>

  <text class="label" x="20" y="60">SCL</text>
  <text class="label" x="20" y="140">SDA</text>

  <path class="sig" d="M40 80 L87 80 L87 40 L93 40 L93 80 L100 80 L100 80 L107 80 L107 40 L113 40 L113 80 L120 80 L120 80 L127 80 L127 40 L133 40 L133 80 L140 80 L140 80 L147 80 L147 40 L153 40 L153 80 L160 80 L160 80 L167 80 L167 40 L173 40 L173 80 L180 80 L180 80 L187 80 L187 40 L193 40 L193 80 L200 80 L200 80 L207 80 L207 40 L213 40 L213 80 L220 80 L220 80 L227 80 L227 40 L233 40 L233 80 L240 80 L240 80 L247 80 L247 40 L253 40 L253 80 L260 80 L260 80 L267 80 L267 40 L273 40 L273 80 L280 80 L280 80 L287 80 L287 40 L293 40 L293 80 L300 80 L300 80 L307 80 L307 40 L313 40 L313 80 L320 80 L320 80 L327 80 L327 40 L333 40 L333 80 L340 80 L340 80 L347 80 L347 40 L353 40 L353 80 L360 80 L360 80 L367 80 L367 40 L373 40 L373 80 L380 80 L380 80 L387 80 L387 40 L393 40 L393 80 L400 80 L400 80 L407 80 L407 40 L413 40 L413 80 L420 80 L420 80 L427 80 L427 40 L433 40 L433 80 L440 80 L440 80 L447 80 L447 40 L453 40 L453 80 L460 80 L460 80 L467 80 L467 40 L473 40 L473 80 L480 80 L480 80 L487 80 L487 40 L493 40 L493 80 L500 80 L500 80 L507 80 L507 40 L513 40 L513 80 L520 80 L520 80 L527 80 L527 40 L533 40 L533 80 L540 80 L540 80 L547 80 L547 40 L553 40 L553 80 L560 80 L560 80 L567 80 L567 40 L573 40 L573 80 L580 80 L580 80 L587 80 L587 40 L593 40 L593 80 L600 80 L600 80 L607 80 L607 40 L613 40 L613 80 L620 80 L620 80 L627 80 L627 40 L633 40 L633 80 L640 80 L640 80 L647 80 L647 40 L653 40 L653 80 L660 80 L660 80 L667 80 L667 40 L673 40 L673 80 L680 80 L680 80 L687 80 L687 40 L693 40 L693 80 L700 80 L700 80 L707 80 L707 40 L713 40 L713 80 L720 80 L720 80 L727 80 L727 40 L733 40 L733 80 L740 80 L740 80 L747 80 L747 40 L753 40 L753 80 L760 80 L760 80 L767 80 L767 40 L773 40 L773 80 L780 80 L780 80 L787 80 L787 40 L793 40 L793 80 L800 80 L800 80 L807 80 L807 40 L813 40 L813 80 L820 80 L827 80 L827 40 L860 40"/>
  <path class="sig" d="M40 120 L90 120 L90 160 L100 160 L100 120 L120 120 L120 160 L140 160 L140 120 L160 120 L160 160 L180 160 L200 160 L220 160 L240 160 L260 160 L280 160 L280 120 L300 120 L300 160 L320 160 L320 120 L340 120 L340 160 L360 160 L380 160 L380 120 L400 120 L400 160 L420 160 L420 120 L440 120 L440 160 L460 160 L460 120 L467 120 L467 160 L473 120 L480 120 L480 160 L500 160 L500 120 L520 120 L520 160 L540 160 L560 160 L580 160 L600 160 L600 120 L620 120 L620 160 L640 160 L660 160 L660 120 L680 120 L700 120 L700 160 L720 160 L740 160 L740 120 L760 120 L760 160 L780 160 L780 120 L800 120 L820 120 L827 160 L827 120 L860 120"/>

  <text class="muted" x="95" y="30">Start</text>
  <text class="muted" x="200" y="30">Addr + W</text>
  <text class="muted" x="330" y="30">ACK</text>
  <text class="muted" x="400" y="30">Data</text>
  <text class="muted" x="520" y="30">ACK</text>
  <text class="muted" x="560" y="30">Repeated Start</text>
  <text class="muted" x="700" y="30">Addr + R</text>
  <text class="muted" x="820" y="30">Stop</text>
</svg>
